<?xml version="1.0" standalone="no"?>
<!DOCTYPE svg PUBLIC "-//W3C//DTD SVG 1.1//EN" "http://www.w3.org/Graphics/SVG/1.1/DTD/svg11.dtd">
<svg width="100%" height="100%" viewBox="0 0 250 100" version="1.1" xmlns="http://www.w3.org/2000/svg" xmlns:xlink="http://www.w3.org/1999/xlink" xml:space="preserve" style="fill-rule:evenodd;clip-rule:evenodd;stroke-linejoin:round;stroke-miterlimit:1.41421;">
    <g transform="matrix(1,0,0,1,-15,0)">
        <g transform="matrix(2.01054,0,0,2.01054,96.162,40.9051)">
            <text x="0px" y="0px" style="font-family:'HelveticaNeue-Medium';font-size:11.814px;fill:rgb(115,115,115);">riot</text>
        </g>
        <g transform="matrix(3.69176,0,0,3.69176,92.1417,68.8254)">
            <text x="0px" y="0px" style="font-family:'HelveticaNeue-Medium';font-size:12px;fill:rgb(255,0,68);">onScr</text>
            <g transform="matrix(1,0,0,1,32.46,0)">
                <text x="0px" y="0px" style="font-family:'HelveticaNeue-Medium';font-size:12px;fill:rgb(255,0,68);">oll</text>
            </g>
        </g>
        <g transform="matrix(-1.42361,8.26424e-16,-8.26424e-16,-1.42361,60.3048,136.642)">
            <path d="M-10.607,50.719C-11.946,50.719 -13.031,51.805 -13.031,53.144C-13.031,54.482 -11.946,55.568 -10.607,55.568C-9.268,55.568 -8.183,54.482 -8.183,53.144C-8.183,51.805 -9.268,50.719 -10.607,50.719M-4.72,44.486C-6.058,44.486 -7.144,45.571 -7.144,46.91C-7.144,48.249 -6.058,49.334 -4.72,49.334C-3.381,49.334 -2.295,48.249 -2.295,46.91C-2.295,45.963 -2.838,45.143 -3.629,44.744C-3.957,44.579 -4.327,44.486 -4.72,44.486M-4.72,50.719C-6.058,50.719 -7.144,51.805 -7.144,53.144C-7.144,54.482 -6.058,55.568 -4.72,55.568C-3.381,55.568 -2.295,54.482 -2.295,53.144C-2.295,51.805 -3.381,50.719 -4.72,50.719M1.168,38.251C-0.17,38.251 -1.256,39.336 -1.256,40.676C-1.256,42.015 -0.17,43.1 1.168,43.1C2.507,43.1 3.592,42.015 3.592,40.676C3.592,39.336 2.507,38.251 1.168,38.251M1.168,44.486C-0.17,44.486 -1.256,45.571 -1.256,46.91C-1.256,48.249 -0.17,49.334 1.168,49.334C2.507,49.334 3.592,48.249 3.592,46.91C3.592,45.571 2.507,44.486 1.168,44.486M1.168,50.719C-0.17,50.719 -1.256,51.805 -1.256,53.144C-1.256,54.482 -0.17,55.568 1.168,55.568C2.507,55.568 3.592,54.482 3.592,53.144C3.592,51.805 2.507,50.719 1.168,50.719M7.056,32.018C5.717,32.018 4.631,33.103 4.631,34.442C4.631,35.781 5.717,36.866 7.056,36.866C8.394,36.866 9.48,35.781 9.48,34.442C9.48,33.103 8.394,32.018 7.056,32.018M7.056,38.251C5.717,38.251 4.631,39.336 4.631,40.676C4.631,42.015 5.717,43.1 7.056,43.1C8.394,43.1 9.48,42.015 9.48,40.676C9.48,39.336 8.394,38.251 7.056,38.251M7.056,44.486C5.717,44.486 4.631,45.571 4.631,46.91C4.631,48.249 5.717,49.334 7.056,49.334C8.394,49.334 9.48,48.249 9.48,46.91C9.48,45.571 8.394,44.486 7.056,44.486M7.056,50.719C5.717,50.719 4.631,51.805 4.631,53.144C4.631,54.482 5.717,55.568 7.056,55.568C8.394,55.568 9.48,54.482 9.48,53.144C9.48,51.805 8.394,50.719 7.056,50.719M12.943,38.251C11.605,38.251 10.519,39.336 10.519,40.676C10.519,42.015 11.605,43.1 12.943,43.1C14.282,43.1 15.368,42.015 15.368,40.676C15.368,39.336 14.282,38.251 12.943,38.251M12.943,44.486C11.605,44.486 10.519,45.571 10.519,46.91C10.519,48.249 11.605,49.334 12.943,49.334C14.282,49.334 15.368,48.249 15.368,46.91C15.368,45.571 14.282,44.486 12.943,44.486M12.943,50.719C11.605,50.719 10.519,51.805 10.519,53.144C10.519,54.482 11.605,55.568 12.943,55.568C14.282,55.568 15.368,54.482 15.368,53.144C15.368,51.805 14.282,50.719 12.943,50.719M18.831,44.486C17.492,44.486 16.406,45.571 16.406,46.91C16.406,48.249 17.492,49.334 18.831,49.334C20.17,49.334 21.256,48.249 21.256,46.91C21.256,45.571 20.17,44.486 18.831,44.486M18.831,50.719C17.492,50.719 16.406,51.805 16.406,53.144C16.406,54.482 17.492,55.568 18.831,55.568C20.17,55.568 21.256,54.482 21.256,53.144C21.256,51.805 20.17,50.719 18.831,50.719M24.718,50.719C23.38,50.719 22.294,51.805 22.294,53.144C22.294,54.482 23.38,55.568 24.718,55.568C26.057,55.568 27.143,54.482 27.143,53.144C27.143,51.805 26.057,50.719 24.718,50.719" style="fill:rgb(128,128,128);fill-rule:nonzero;"/>
        </g>
        <g transform="matrix(-1.42361,8.26424e-16,-8.26424e-16,-1.42361,112.331,92.0689)">
            <path d="M25.938,36.912C24.599,36.912 23.514,35.826 23.514,34.487C23.514,33.148 24.599,32.063 25.938,32.063C27.277,32.063 28.362,33.148 28.362,34.487C28.362,35.826 27.277,36.912 25.938,36.912M31.826,43.145C30.487,43.145 29.401,42.06 29.401,40.721C29.401,39.382 30.487,38.297 31.826,38.297C33.164,38.297 34.25,39.382 34.25,40.721C34.25,42.06 33.164,43.145 31.826,43.145M31.826,36.912C30.487,36.912 29.401,35.826 29.401,34.487C29.401,33.148 30.487,32.063 31.826,32.063C33.164,32.063 34.25,33.148 34.25,34.487C34.25,35.826 33.164,36.912 31.826,36.912M37.713,49.379C36.375,49.379 35.289,48.294 35.289,46.955C35.289,45.616 36.375,44.531 37.713,44.531C39.052,44.531 40.137,45.616 40.137,46.955C40.137,48.294 39.052,49.379 37.713,49.379M37.713,43.145C36.375,43.145 35.289,42.06 35.289,40.721C35.289,39.382 36.375,38.297 37.713,38.297C39.052,38.297 40.137,39.382 40.137,40.721C40.137,42.06 39.052,43.145 37.713,43.145M37.713,36.912C36.375,36.912 35.289,35.826 35.289,34.487C35.289,33.148 36.375,32.063 37.713,32.063C39.052,32.063 40.137,33.148 40.137,34.487C40.137,35.826 39.052,36.912 37.713,36.912M43.601,55.613C42.262,55.613 41.176,54.528 41.176,53.189C41.176,51.85 42.262,50.765 43.601,50.765C44.94,50.765 46.026,51.85 46.026,53.189C46.026,54.528 44.94,55.613 43.601,55.613M43.601,49.379C42.262,49.379 41.176,48.294 41.176,46.955C41.176,45.616 42.262,44.531 43.601,44.531C44.94,44.531 46.026,45.616 46.026,46.955C46.026,48.294 44.94,49.379 43.601,49.379M43.601,43.145C42.262,43.145 41.176,42.06 41.176,40.721C41.176,39.382 42.262,38.297 43.601,38.297C44.94,38.297 46.026,39.382 46.026,40.721C46.026,42.06 44.94,43.145 43.601,43.145M43.601,36.912C42.262,36.912 41.176,35.826 41.176,34.487C41.176,33.148 42.262,32.063 43.601,32.063C44.94,32.063 46.026,33.148 46.026,34.487C46.026,35.826 44.94,36.912 43.601,36.912M49.489,49.379C48.15,49.379 47.064,48.294 47.064,46.955C47.064,45.616 48.15,44.531 49.489,44.531C50.827,44.531 51.913,45.616 51.913,46.955C51.913,48.294 50.827,49.379 49.489,49.379M49.489,43.145C48.15,43.145 47.064,42.06 47.064,40.721C47.064,39.382 48.15,38.297 49.489,38.297C50.827,38.297 51.913,39.382 51.913,40.721C51.913,42.06 50.827,43.145 49.489,43.145M49.489,36.912C48.15,36.912 47.064,35.826 47.064,34.487C47.064,33.148 48.15,32.063 49.489,32.063C50.827,32.063 51.913,33.148 51.913,34.487C51.913,35.826 50.827,36.912 49.489,36.912M55.376,43.145C54.037,43.145 52.952,42.06 52.952,40.721C52.952,39.382 54.037,38.297 55.376,38.297C56.715,38.297 57.801,39.382 57.801,40.721C57.801,42.06 56.715,43.145 55.376,43.145M55.376,36.912C54.037,36.912 52.952,35.826 52.952,34.487C52.952,33.148 54.037,32.063 55.376,32.063C56.715,32.063 57.801,33.148 57.801,34.487C57.801,35.826 56.715,36.912 55.376,36.912M61.264,36.912C59.925,36.912 58.839,35.826 58.839,34.487C58.839,33.148 59.925,32.063 61.264,32.063C62.602,32.063 63.688,33.148 63.688,34.487C63.688,35.826 62.602,36.912 61.264,36.912" style="fill:rgb(255,0,68);fill-rule:nonzero;"/>
        </g>
    </g>
</svg>
